<svg width="1440" height="1024" viewBox="0 0 1440 1024" fill="none" xmlns="http://www.w3.org/2000/svg">
<g id="tekni-logo 1" clip-path="url(#clip0_1_3)">
<g id="logo reveal">
<path id="Vector" d="M1440 0H0V1024H1440V0Z" fill="white"/>
<path id="bg" d="M1440 0H0V1024H1440V0Z" fill="#F0F0F0"/>
<g id="tekni-logo">
<path id="e" d="M610.352 519.953C594.141 519.953 581.022 515.135 570.996 505.5C560.97 495.799 555.957 483.202 555.957 467.707V464.973C555.957 454.165 557.943 444.628 561.914 436.359C565.951 428.091 571.81 421.711 579.492 417.219C587.174 412.661 596.289 410.383 606.836 410.383C621.68 410.383 633.398 415.005 641.992 424.25C650.586 433.43 654.883 446.255 654.883 462.727V475.52H589.453C590.625 481.444 593.197 486.099 597.168 489.484C601.139 492.87 606.283 494.562 612.598 494.562C623.014 494.562 631.152 490.917 637.012 483.625L652.051 501.398C647.949 507.062 642.122 511.587 634.57 514.973C627.083 518.293 619.01 519.953 610.352 519.953ZM606.641 435.773C597.005 435.773 591.276 442.154 589.453 454.914H622.656V452.375C622.786 447.102 621.452 443.033 618.652 440.168C615.853 437.238 611.849 435.773 606.641 435.773Z" fill="black"/>
<path id="e-clip" d="M777 383H513V522H777V383Z" fill="#00FF38"/>
<path id="k" d="M719.66 478.645L710.383 487.922V518H677.473V367.902H710.383V447.59L713.703 443.195L738.508 412.336H777.961L740.949 455.793L780.402 518H742.707L719.66 478.645Z" fill="black"/>
<path id="n" d="M826.453 412.336L827.527 424.738C834.819 415.168 844.878 410.383 857.703 410.383C868.706 410.383 876.909 413.671 882.312 420.246C887.781 426.822 890.613 436.717 890.809 449.934V518H857.801V451.301C857.801 445.962 856.727 442.056 854.578 439.582C852.43 437.043 848.523 435.773 842.859 435.773C836.414 435.773 831.629 438.312 828.504 443.391V518H795.594V412.336H826.453Z" fill="black"/>
<path id="i" d="M943.945 518H910.938V412.336H943.945V518Z" fill="black"/>
<path id="t-cross" d="M444 424.008V391H549.664V424.008H444Z" fill="black"/>
<path id="t-down" d="M513 477H480V393H513V477Z" fill="black"/>
<path id="t-path" d="M496.5 477V621.5V657C496.5 717.199 545.414 766 605.753 766H818.247C878.586 766 927.5 717.199 927.5 657V518" stroke="#FF0000" stroke-width="33"/>
<path id="dot" d="M914.078 400.492C910.693 403.487 909 407.328 909 412.016C909 416.703 910.693 420.544 914.078 423.539C917.464 426.534 921.858 428.031 927.262 428.031C932.665 428.031 937.06 426.534 940.445 423.539C943.831 420.544 945.523 416.703 945.523 412.016C945.523 407.328 943.831 403.487 940.445 400.492C937.06 397.497 932.665 396 927.262 396C921.858 396 917.464 397.497 914.078 400.492Z" fill="black"/>
<path id="dot-path" d="M979 501.5V387C979 372.641 967.359 361 953 361C938.641 361 927 372.641 927 387V412.804" stroke="#FF0000"/>
</g>
</g>
</g>
<defs>
<clipPath id="clip0_1_3">
<rect width="1440" height="1024" fill="white"/>
</clipPath>
</defs>
</svg>
