<svg width="1264" height="611" viewBox="0 0 1264 611" fill="none" xmlns="http://www.w3.org/2000/svg">
<g id="pattern-animation">
<rect width="1264" height="611" fill="white"/>
<rect id="line-1" x="408.5" y="82.5" width="447" height="447" stroke="black" stroke-width="3"/>
<rect id="line-2" x="418.5" y="92.5" width="427" height="427" stroke="black" stroke-width="3"/>
<rect id="line-3" x="428.5" y="102.5" width="407" height="407" stroke="black" stroke-width="3"/>
<rect id="line-4" x="438.5" y="112.5" width="387" height="387" stroke="black" stroke-width="3"/>
<rect id="line-5" x="448.5" y="122.5" width="367" height="367" stroke="black" stroke-width="3"/>
<rect id="line-6" x="458.5" y="132.5" width="347" height="347" stroke="black" stroke-width="3"/>
<rect id="line-7" x="468.5" y="142.5" width="327" height="327" stroke="black" stroke-width="3"/>
<rect id="line-8" x="478.5" y="152.5" width="307" height="307" stroke="black" stroke-width="3"/>
<rect id="line-9" x="488.5" y="162.5" width="287" height="287" stroke="black" stroke-width="3"/>
<rect id="line-10" x="498.5" y="172.5" width="267" height="267" stroke="black" stroke-width="3"/>
<rect id="line-11" x="508.5" y="182.5" width="247" height="247" stroke="black" stroke-width="3"/>
<rect id="line-12" x="518.5" y="192.5" width="227" height="227" stroke="black" stroke-width="3"/>
<rect id="line-12_2" x="528.5" y="202.5" width="207" height="207" stroke="black" stroke-width="3"/>
<rect id="line-13" x="538.5" y="212.5" width="187" height="187" stroke="black" stroke-width="3"/>
<rect id="line-14" x="548.5" y="222.5" width="167" height="167" stroke="black" stroke-width="3"/>
<rect id="line-15" x="558.5" y="232.5" width="147" height="147" stroke="black" stroke-width="3"/>
<rect id="line-16" x="568.5" y="242.5" width="127" height="127" stroke="black" stroke-width="3"/>
<rect id="line-17" x="578.5" y="252.5" width="107" height="107" stroke="black" stroke-width="3"/>
<rect id="line-18" x="588.5" y="262.5" width="87" height="87" stroke="black" stroke-width="3"/>
<rect id="line-19" x="598.5" y="272.5" width="67" height="67" stroke="black" stroke-width="3"/>
<rect id="line-20" x="608.5" y="282.5" width="47" height="47" stroke="black" stroke-width="3"/>
<rect id="line-21" x="618.5" y="292.5" width="27" height="27" stroke="black" stroke-width="3"/>
</g>
</svg>
