<svg width="1440" height="900" viewBox="0 0 1440 900" fill="none" xmlns="http://www.w3.org/2000/svg">
<g id="tree 1">
<rect width="1440" height="900" fill="white"/>
<g id="Frame" clip-path="url(#clip0_3_372)">
<g id="Group">
<g id="OBJECTS">
<path id="Vector" d="M733.813 616.887H705.189V788.966H733.813V616.887Z" fill="#432216"/>
<path id="Vector_2" d="M463 377.79C463.03 358.359 468.743 339.362 479.435 323.141C490.128 306.919 505.332 294.182 523.174 286.5C519.42 271.502 519.705 255.777 524 240.926C528.295 226.074 536.448 212.626 547.628 201.95C558.808 191.275 572.616 183.752 587.647 180.149C602.677 176.546 618.394 176.991 633.197 181.439C633.197 180.176 633.197 178.971 633.197 177.709C633.197 177.307 633.197 176.906 633.197 176.504C633.197 176.102 633.197 175.701 633.197 175.299C633.197 152.404 642.29 130.446 658.475 114.257C674.66 98.0675 696.611 88.9724 719.5 88.9724C742.389 88.9724 764.341 98.0675 780.526 114.257C796.711 130.446 805.803 152.404 805.803 175.299V177.709C805.803 179.775 805.803 181.84 805.803 183.849C814.047 181.374 822.608 180.118 831.215 180.119C854.376 180.18 876.568 189.426 892.924 205.829C909.28 222.232 918.465 244.454 918.465 267.622C918.458 274.795 917.591 281.942 915.884 288.91C933.217 296.406 948.061 308.68 958.682 324.299C969.302 339.918 975.261 358.237 975.863 377.117C976.464 395.997 971.683 414.658 962.078 430.922C952.474 447.185 938.441 460.38 921.62 468.965C928.594 486.82 929.838 506.404 925.181 524.998C920.524 543.593 910.196 560.276 895.629 572.733C881.063 585.19 862.982 592.803 843.895 594.515C824.807 596.228 805.66 591.954 789.111 582.288C783.677 596.599 773.974 608.892 761.316 617.497C748.659 626.103 733.661 630.604 718.359 630.391C703.056 630.178 688.189 625.261 675.776 616.307C663.363 607.352 654.005 594.794 648.972 580.337C632.392 589.88 613.257 594.034 594.214 592.224C575.171 590.415 557.16 582.732 542.673 570.238C528.185 557.744 517.936 541.055 513.344 522.481C508.751 503.907 510.042 484.364 517.037 466.555C500.726 458.178 487.047 445.455 477.511 429.79C467.975 414.126 462.953 396.13 463 377.79" fill="#38CCA2"/>
<path id="Vector_3" opacity="0.6" d="M872.23 291.72C872.2 273.306 864.869 255.655 851.847 242.64C838.824 229.624 821.172 222.307 802.763 222.291C797.073 222.309 791.407 223.041 785.898 224.472C792.133 218.248 799.602 213.399 807.824 210.237C816.045 207.075 824.838 205.669 833.635 206.111C842.432 206.553 851.04 208.832 858.903 212.803C866.767 216.773 873.712 222.346 879.293 229.163C884.873 235.981 888.964 243.891 891.304 252.385C893.643 260.88 894.179 269.77 892.876 278.484C891.573 287.198 888.461 295.543 883.739 302.981C879.018 310.419 872.791 316.786 865.461 321.672C869.91 312.354 872.222 302.16 872.23 291.835" fill="#21B198"/>
<path id="Vector_4" opacity="0.6" d="M785.554 320.409C772.425 307.465 754.697 300.262 736.263 300.38C717.829 300.499 700.195 307.929 687.233 321.041C683.272 325.112 679.806 329.638 676.908 334.525C676.88 325.733 678.688 317.033 682.217 308.981C685.746 300.929 690.917 293.703 697.4 287.767C703.883 281.83 711.535 277.314 719.864 274.507C728.193 271.701 737.017 270.666 745.769 271.469C754.522 272.272 763.01 274.895 770.69 279.17C778.371 283.445 785.073 289.277 790.369 296.294C795.664 303.311 799.436 311.357 801.442 319.917C803.448 328.476 803.644 337.361 802.017 346.001C798.516 336.277 792.892 327.456 785.554 320.18" fill="#21B198"/>
<path id="Vector_5" opacity="0.6" d="M581.913 346.23C572.797 346.693 563.861 348.948 555.617 352.868C547.372 356.787 539.981 362.293 533.865 369.071C527.749 375.85 523.029 383.767 519.974 392.371C516.919 400.975 515.589 410.098 516.06 419.216C516.372 424.901 517.374 430.527 519.043 435.971C512.521 430.057 507.308 422.844 503.739 414.795C500.17 406.747 498.324 398.04 498.32 389.235C498.316 380.429 500.154 371.721 503.716 363.669C507.277 355.617 512.484 348.399 519 342.479C525.517 336.56 533.2 332.07 541.555 329.298C549.91 326.526 558.753 325.533 567.514 326.384C576.276 327.234 584.762 329.909 592.429 334.236C600.095 338.563 606.772 344.447 612.029 351.509C602.513 347.513 592.221 345.709 581.913 346.23" fill="#21B198"/>
<path id="Vector_6" opacity="0.6" d="M927.241 413.478C926.437 402.93 923.228 392.706 917.86 383.591C912.492 374.476 905.108 366.712 896.275 360.895C887.441 355.078 877.392 351.363 866.9 350.034C856.408 348.706 845.751 349.799 835.747 353.23C841.468 346.539 848.526 341.119 856.467 337.319C864.408 333.519 873.056 331.423 881.855 331.165C890.654 330.908 899.41 332.495 907.559 335.825C915.708 339.154 923.071 344.152 929.173 350.498C935.276 356.844 939.984 364.397 942.994 372.671C946.004 380.945 947.251 389.758 946.653 398.543C946.055 407.328 943.626 415.89 939.522 423.68C935.418 431.47 929.73 438.315 922.824 443.774C926.508 434.124 928.016 423.779 927.241 413.478" fill="#21B198"/>
<path id="Vector_7" opacity="0.6" d="M761.749 162.675C754.291 155.13 745.204 149.398 735.185 145.917C725.165 142.436 714.482 141.301 703.955 142.598C693.428 143.895 683.339 147.589 674.464 153.397C665.588 159.206 658.163 166.973 652.758 176.101C652.999 167.442 655.019 158.925 658.692 151.081C662.365 143.236 667.614 136.232 674.111 130.504C680.607 124.776 688.213 120.448 696.455 117.787C704.696 115.127 713.397 114.192 722.015 115.041C730.634 115.889 738.985 118.503 746.55 122.72C754.115 126.937 760.731 132.666 765.986 139.551C771.241 146.436 775.024 154.33 777.097 162.74C779.171 171.151 779.492 179.898 778.04 188.438C774.625 178.679 769.057 169.814 761.749 162.502" fill="#21B198"/>
<path id="Vector_8" opacity="0.6" d="M628.264 225.505C619.13 225.49 610.081 227.275 601.637 230.76C593.192 234.244 585.517 239.359 579.049 245.813C572.582 252.266 567.45 259.93 563.945 268.369C560.441 276.807 558.633 285.853 558.625 294.991C558.643 300.683 559.375 306.35 560.805 311.86C554.583 305.623 549.735 298.153 546.574 289.929C543.413 281.705 542.008 272.91 542.45 264.11C542.891 255.311 545.17 246.701 549.139 238.835C553.108 230.969 558.68 224.022 565.495 218.44C572.311 212.859 580.219 208.766 588.711 206.426C597.203 204.086 606.091 203.55 614.803 204.853C623.514 206.157 631.857 209.27 639.293 213.993C646.729 218.716 653.094 224.943 657.979 232.275C648.663 227.826 638.473 225.513 628.15 225.505" fill="#21B198"/>
<path id="Vector_9" opacity="0.6" d="M549.045 486.407C549.045 504.851 556.37 522.54 569.409 535.582C582.447 548.623 600.131 555.95 618.57 555.95C624.26 555.924 629.925 555.191 635.435 553.77C629.2 559.994 621.731 564.843 613.509 568.005C605.288 571.167 596.495 572.573 587.698 572.131C578.901 571.689 570.293 569.409 562.43 565.439C554.566 561.469 547.621 555.896 542.041 549.078C536.46 542.261 532.369 534.351 530.029 525.856C527.69 517.362 527.154 508.472 528.457 499.758C529.76 491.044 532.872 482.699 537.594 475.261C542.315 467.823 548.542 461.456 555.872 456.57C551.387 465.877 549.054 476.075 549.045 486.407" fill="#21B198"/>
<path id="Vector_10" opacity="0.6" d="M678.112 448.996C685.597 456.456 694.686 462.106 704.687 465.516C714.688 468.926 725.336 470.005 735.817 468.671C746.299 467.337 756.337 463.625 765.166 457.819C773.994 452.012 781.38 444.265 786.758 435.167C786.786 443.959 784.978 452.66 781.449 460.711C777.92 468.763 772.749 475.989 766.266 481.925C759.783 487.862 752.131 492.378 743.802 495.185C735.473 497.991 726.649 499.026 717.897 498.223C709.144 497.421 700.656 494.798 692.976 490.523C685.295 486.248 678.593 480.415 673.297 473.398C668.002 466.381 664.23 458.335 662.224 449.775C660.218 441.216 660.022 432.331 661.649 423.692C665.172 433.404 670.794 442.22 678.112 449.512" fill="#21B198"/>
<path id="Vector_11" opacity="0.6" d="M673.695 560.827C681.152 568.305 690.217 573.981 700.2 577.422C710.183 580.864 720.82 581.979 731.3 580.684C741.779 579.389 751.825 575.718 760.67 569.949C769.516 564.181 776.928 556.469 782.341 547.401C782.308 556.199 780.436 564.894 776.846 572.926C773.256 580.958 768.026 588.151 761.493 594.042C754.96 599.934 747.268 604.394 738.91 607.137C730.552 609.879 721.713 610.843 712.96 609.967C704.208 609.091 695.735 606.395 688.086 602.05C680.437 597.706 673.78 591.81 668.543 584.741C663.307 577.671 659.605 569.585 657.677 561C655.749 552.416 655.636 543.523 657.346 534.892C660.761 544.651 666.329 553.515 673.637 560.827" fill="#21B198"/>
<path id="Vector_12" opacity="0.6" d="M830.126 554.516C848.55 554.516 866.219 547.195 879.247 534.164C892.274 521.133 899.593 503.459 899.593 485.03C899.595 479.34 898.882 473.672 897.471 468.16C903.024 474.5 907.246 481.894 909.884 489.9C912.521 497.906 913.522 506.361 912.825 514.761C912.128 523.162 909.748 531.336 905.827 538.798C901.907 546.26 896.525 552.856 890.003 558.194C883.48 563.532 875.951 567.502 867.863 569.869C859.774 572.235 851.293 572.95 842.923 571.97C834.553 570.989 826.465 568.334 819.142 564.163C811.819 559.991 805.411 554.388 800.297 547.688C809.595 552.194 819.795 554.529 830.126 554.516" fill="#21B198"/>
<g id="Vector_13" style="mix-blend-mode:multiply">
<path d="M887.603 783.286C887.603 798.549 813.949 810.942 723.085 810.942C632.222 810.942 558.625 798.549 558.625 783.286C558.625 768.023 632.279 755.572 723.142 755.572C814.006 755.572 887.603 767.966 887.603 783.286Z" fill="#E0E0E0"/>
</g>
</g>
</g>
</g>
</g>
<defs>
<clipPath id="clip0_3_372">
<rect width="513" height="722" fill="white" transform="translate(463 89)"/>
</clipPath>
</defs>
</svg>
