<svg width="1440" height="900" viewBox="0 0 1440 900" fill="none" xmlns="http://www.w3.org/2000/svg">
<g id="tree 2">
<rect width="1440" height="900" fill="white"/>
<g id="tree" clip-path="url(#clip0_3_389)">
<path id="trunk" d="M733.813 616.887H705.189V788.966H733.813V616.887Z" fill="#432216"/>
<path id="tree_2" d="M463 377.79C463.03 358.359 468.743 339.362 479.435 323.141C490.128 306.919 505.332 294.182 523.174 286.5C519.42 271.502 519.705 255.777 524 240.926C528.295 226.074 536.448 212.626 547.628 201.95C558.808 191.275 572.616 183.752 587.647 180.149C602.677 176.546 618.394 176.991 633.197 181.439C633.197 180.176 633.197 178.971 633.197 177.709C633.197 177.307 633.197 176.906 633.197 176.504C633.197 176.102 633.197 175.701 633.197 175.299C633.197 152.404 642.29 130.446 658.475 114.257C674.66 98.0675 696.611 88.9724 719.5 88.9724C742.389 88.9724 764.341 98.0675 780.526 114.257C796.711 130.446 805.803 152.404 805.803 175.299V177.709C805.803 179.775 805.803 181.84 805.803 183.849C814.047 181.374 822.608 180.118 831.215 180.119C854.376 180.18 876.568 189.426 892.924 205.829C909.28 222.232 918.465 244.454 918.465 267.622C918.458 274.795 917.591 281.942 915.884 288.91C933.217 296.406 948.061 308.68 958.682 324.299C969.302 339.918 975.261 358.237 975.863 377.117C976.464 395.997 971.683 414.658 962.078 430.922C952.474 447.185 938.441 460.38 921.62 468.965C928.594 486.82 929.838 506.404 925.181 524.998C920.524 543.593 910.196 560.276 895.629 572.733C881.063 585.19 862.982 592.803 843.895 594.515C824.807 596.228 805.66 591.954 789.111 582.288C783.677 596.599 773.974 608.892 761.316 617.497C748.659 626.103 733.661 630.604 718.359 630.391C703.056 630.178 688.189 625.261 675.776 616.307C663.363 607.352 654.005 594.794 648.972 580.337C632.392 589.88 613.257 594.034 594.214 592.224C575.171 590.415 557.16 582.732 542.673 570.238C528.185 557.744 517.936 541.055 513.344 522.481C508.751 503.907 510.042 484.364 517.037 466.555C500.726 458.178 487.047 445.455 477.511 429.79C467.975 414.126 462.953 396.13 463 377.79" fill="#38CCA2"/>
<g id="leaves" opacity="0.6">
<path d="M761.749 162.675C754.291 155.13 745.204 149.398 735.185 145.917C725.165 142.436 714.482 141.301 703.955 142.598C693.428 143.895 683.339 147.589 674.464 153.397C665.588 159.206 658.163 166.973 652.758 176.101C652.999 167.442 655.019 158.925 658.692 151.081C662.365 143.236 667.614 136.232 674.111 130.504C680.607 124.776 688.213 120.448 696.455 117.787C704.696 115.127 713.397 114.192 722.015 115.041C730.634 115.889 738.985 118.503 746.55 122.72C754.115 126.937 760.731 132.666 765.986 139.551C771.241 146.436 775.024 154.33 777.097 162.74C779.171 171.151 779.492 179.898 778.04 188.438C774.625 178.679 769.057 169.814 761.749 162.502V162.675Z" fill="#21B198"/>
<path d="M851.847 242.64C864.869 255.655 872.2 273.306 872.23 291.72V291.835C872.222 302.16 869.91 312.354 865.461 321.672C872.791 316.786 879.018 310.419 883.739 302.981C888.461 295.543 891.573 287.198 892.876 278.484C894.179 269.77 893.643 260.88 891.304 252.385C888.964 243.891 884.873 235.981 879.293 229.163C873.712 222.346 866.767 216.773 858.903 212.803C851.04 208.832 842.432 206.553 833.635 206.111C824.838 205.669 816.045 207.075 807.824 210.237C799.602 213.399 792.133 218.248 785.898 224.472C791.407 223.041 797.073 222.309 802.763 222.291C821.172 222.307 838.824 229.624 851.847 242.64Z" fill="#21B198"/>
<path d="M736.263 300.38C754.697 300.262 772.425 307.465 785.554 320.41V320.18C792.892 327.456 798.516 336.277 802.017 346.001C803.644 337.361 803.448 328.476 801.442 319.917C799.436 311.357 795.664 303.311 790.369 296.294C785.073 289.277 778.371 283.445 770.69 279.17C763.01 274.895 754.522 272.272 745.769 271.469C737.017 270.666 728.193 271.701 719.864 274.507C711.535 277.314 703.883 281.83 697.4 287.767C690.917 293.703 685.746 300.929 682.217 308.981C678.688 317.033 676.88 325.733 676.908 334.525C679.806 329.638 683.272 325.112 687.233 321.041C700.195 307.929 717.829 300.499 736.263 300.38Z" fill="#21B198"/>
<path d="M581.913 346.23C572.797 346.693 563.861 348.948 555.617 352.868C547.372 356.787 539.981 362.293 533.865 369.071C527.749 375.85 523.029 383.767 519.974 392.371C516.919 400.975 515.589 410.098 516.06 419.216C516.372 424.901 517.374 430.527 519.043 435.971C512.521 430.057 507.308 422.844 503.739 414.795C500.17 406.747 498.324 398.04 498.32 389.235C498.316 380.43 500.154 371.721 503.716 363.669C507.277 355.617 512.484 348.399 519 342.479C525.517 336.56 533.2 332.07 541.555 329.298C549.91 326.526 558.753 325.533 567.514 326.384C576.276 327.234 584.762 329.909 592.429 334.236C600.095 338.563 606.772 344.447 612.029 351.509C602.513 347.513 592.221 345.709 581.913 346.23Z" fill="#21B198"/>
<path d="M917.86 383.591C923.228 392.706 926.437 402.93 927.241 413.478C928.016 423.779 926.508 434.124 922.824 443.774C929.73 438.315 935.418 431.47 939.522 423.68C943.626 415.89 946.055 407.328 946.653 398.543C947.251 389.758 946.004 380.945 942.994 372.671C939.984 364.397 935.276 356.844 929.173 350.498C923.071 344.152 915.708 339.154 907.559 335.825C899.41 332.495 890.654 330.908 881.855 331.165C873.056 331.423 864.408 333.519 856.467 337.319C848.526 341.119 841.468 346.539 835.747 353.23C845.751 349.799 856.408 348.706 866.9 350.034C877.392 351.363 887.441 355.078 896.275 360.895C905.108 366.712 912.492 374.476 917.86 383.591Z" fill="#21B198"/>
<path d="M601.637 230.76C610.081 227.275 619.13 225.49 628.264 225.505H628.15C638.473 225.513 648.663 227.826 657.979 232.275C653.094 224.943 646.729 218.715 639.293 213.993C631.857 209.27 623.514 206.157 614.803 204.853C606.091 203.55 597.203 204.086 588.711 206.426C580.219 208.766 572.311 212.859 565.495 218.44C558.68 224.022 553.108 230.969 549.139 238.835C545.17 246.701 542.891 255.311 542.45 264.11C542.008 272.91 543.413 281.705 546.574 289.929C549.735 298.153 554.583 305.623 560.805 311.86C559.375 306.35 558.643 300.683 558.625 294.991C558.633 285.853 560.441 276.807 563.945 268.369C567.45 259.93 572.582 252.266 579.049 245.813C585.517 239.359 593.192 234.244 601.637 230.76Z" fill="#21B198"/>
<path d="M549.045 486.407C549.045 504.851 556.37 522.54 569.409 535.582C582.447 548.623 600.131 555.95 618.57 555.95C624.26 555.924 629.925 555.191 635.435 553.77C629.2 559.994 621.731 564.843 613.509 568.005C605.288 571.167 596.495 572.573 587.698 572.131C578.901 571.689 570.293 569.409 562.43 565.439C554.566 561.469 547.621 555.896 542.041 549.078C536.46 542.261 532.369 534.351 530.029 525.856C527.69 517.362 527.154 508.472 528.457 499.758C529.76 491.044 532.872 482.699 537.594 475.261C542.315 467.823 548.542 461.456 555.872 456.57C551.387 465.877 549.054 476.075 549.045 486.407Z" fill="#21B198"/>
<path d="M704.687 465.516C694.686 462.106 685.597 456.456 678.112 448.996V449.512C670.794 442.22 665.172 433.404 661.649 423.692C660.022 432.331 660.218 441.216 662.224 449.775C664.23 458.335 668.002 466.381 673.297 473.398C678.593 480.415 685.295 486.248 692.976 490.523C700.656 494.798 709.144 497.421 717.897 498.223C726.649 499.026 735.473 497.991 743.802 495.185C752.131 492.378 759.783 487.862 766.266 481.925C772.749 475.989 777.92 468.763 781.449 460.711C784.978 452.66 786.786 443.959 786.758 435.167C781.38 444.265 773.994 452.012 765.166 457.819C756.337 463.625 746.299 467.337 735.817 468.671C725.336 470.005 714.688 468.926 704.687 465.516Z" fill="#21B198"/>
<path d="M673.695 560.827C681.152 568.305 690.217 573.981 700.2 577.422C710.183 580.864 720.82 581.979 731.3 580.684C741.779 579.389 751.825 575.718 760.67 569.949C769.516 564.181 776.928 556.469 782.341 547.401C782.308 556.199 780.436 564.894 776.846 572.926C773.256 580.958 768.026 588.151 761.493 594.042C754.96 599.934 747.268 604.394 738.91 607.136C730.552 609.879 721.713 610.843 712.96 609.967C704.208 609.091 695.735 606.395 688.086 602.05C680.437 597.706 673.78 591.81 668.543 584.741C663.307 577.671 659.605 569.585 657.677 561C655.749 552.416 655.636 543.523 657.346 534.892C660.761 544.651 666.329 553.515 673.637 560.827H673.695Z" fill="#21B198"/>
<path d="M879.247 534.164C866.219 547.195 848.55 554.516 830.126 554.516C819.795 554.529 809.595 552.194 800.297 547.688C805.411 554.388 811.819 559.991 819.142 564.163C826.465 568.334 834.552 570.989 842.923 571.97C851.293 572.95 859.774 572.235 867.862 569.869C875.951 567.502 883.48 563.532 890.003 558.194C896.525 552.856 901.907 546.26 905.827 538.798C909.748 531.336 912.128 523.162 912.825 514.761C913.522 506.361 912.521 497.906 909.884 489.9C907.246 481.894 903.024 474.5 897.471 468.16C898.882 473.672 899.595 479.34 899.593 485.03C899.593 503.459 892.274 521.133 879.247 534.164Z" fill="#21B198"/>
</g>
<g id="shadow" style="mix-blend-mode:multiply">
<path d="M887.603 783.286C887.603 798.549 813.949 810.942 723.085 810.942C632.222 810.942 558.625 798.549 558.625 783.286C558.625 768.023 632.279 755.572 723.142 755.572C814.006 755.572 887.603 767.966 887.603 783.286Z" fill="#E0E0E0"/>
</g>
</g>
</g>
<defs>
<clipPath id="clip0_3_389">
<rect width="513" height="722" fill="white" transform="translate(463 89)"/>
</clipPath>
</defs>
</svg>
