<svg width="1264" height="611" viewBox="0 0 1264 611" fill="none" xmlns="http://www.w3.org/2000/svg">
<g id="UI-animation">
<rect width="1264" height="611" fill="white"/>
<path id="box-bg" d="M252 255H1052V380H252V255Z" fill="#E9E9E9"/>
<line id="bottom-line" x1="252" y1="381" x2="1052" y2="381" stroke="black" stroke-width="2"/>
<g id="pencil" clip-path="url(#clip0_33_2)">
<path id="Vector" d="M279.698 343.26C281.324 341.636 283.951 341.636 285.577 343.26L288.738 346.423C290.364 348.047 290.364 350.676 288.738 352.302L265.53 375.517C264.684 376.356 263.645 376.972 262.502 377.313L253.523 379.948C253.106 380.007 252.655 379.963 252.348 379.651C252.041 379.347 251.926 378.894 252.048 378.479L254.689 369.498C255.025 368.355 255.643 367.316 256.486 366.47L279.698 343.26ZM283.899 344.939C283.202 344.243 282.073 344.243 281.376 344.939L277.309 349.006L282.994 354.625L287.061 350.624C287.759 349.927 287.759 348.798 287.061 348.103L283.899 344.939ZM260.134 371.866L264.87 372.816L281.25 356.369L275.631 350.684L259.187 367.131L260.134 371.866ZM257.233 369.476C257.127 369.698 257.038 369.929 256.967 370.166L254.941 377.061L261.827 375.035C262.071 374.961 262.302 374.872 262.524 374.768L258.892 374.04C258.422 373.944 258.055 373.58 257.961 373.105L257.233 369.476Z" fill="#636363"/>
</g>
<g id="search-icon">
<circle id="glass" cx="977" cy="310" r="39.5" stroke="#3E3E3E" stroke-width="3"/>
<line id="handle" x1="992.226" y1="348.446" x2="998.446" y2="364.774" stroke="#3E3E3E" stroke-width="5" stroke-linecap="round"/>
</g>
<g id="search">
<path id="S" d="M328.37 312.145C328.122 310.044 327.112 308.412 325.343 307.251C323.573 306.09 321.402 305.509 318.831 305.509C316.95 305.509 315.305 305.813 313.895 306.422C312.498 307.03 311.406 307.866 310.618 308.931C309.844 309.995 309.457 311.205 309.457 312.56C309.457 313.694 309.726 314.669 310.266 315.484C310.819 316.286 311.524 316.957 312.381 317.496C313.238 318.021 314.137 318.457 315.077 318.802C316.017 319.134 316.881 319.404 317.669 319.611L321.983 320.773C323.089 321.063 324.32 321.464 325.674 321.976C327.043 322.487 328.35 323.185 329.594 324.07C330.852 324.941 331.889 326.061 332.705 327.43C333.521 328.799 333.928 330.478 333.928 332.469C333.928 334.764 333.327 336.838 332.124 338.691C330.935 340.544 329.193 342.016 326.898 343.108C324.617 344.2 321.845 344.747 318.582 344.747C315.54 344.747 312.906 344.256 310.68 343.274C308.468 342.292 306.726 340.924 305.454 339.168C304.196 337.412 303.484 335.373 303.318 333.05H308.627C308.766 334.654 309.305 335.981 310.245 337.032C311.199 338.069 312.402 338.843 313.853 339.354C315.319 339.852 316.895 340.101 318.582 340.101C320.545 340.101 322.308 339.783 323.87 339.147C325.432 338.497 326.67 337.599 327.582 336.451C328.495 335.29 328.951 333.935 328.951 332.386C328.951 330.976 328.557 329.829 327.769 328.944C326.981 328.059 325.944 327.34 324.658 326.787C323.372 326.234 321.983 325.75 320.49 325.335L315.264 323.842C311.945 322.888 309.319 321.526 307.383 319.756C305.447 317.987 304.48 315.671 304.48 312.809C304.48 310.431 305.122 308.357 306.408 306.587C307.708 304.804 309.45 303.421 311.634 302.44C313.833 301.444 316.287 300.947 318.997 300.947C321.734 300.947 324.167 301.437 326.297 302.419C328.426 303.387 330.112 304.714 331.357 306.401C332.615 308.088 333.279 310.002 333.348 312.145H328.37Z" fill="#3E3E3E"/>
<path id="E" d="M342.143 344V301.527H367.776V306.09H347.286V320.441H366.449V325.003H347.286V339.438H368.108V344H342.143Z" fill="#3E3E3E"/>
<path id="A" d="M378.885 344H373.493L389.089 301.527H394.398L409.993 344H404.601L391.909 308.247H391.577L378.885 344ZM380.876 327.409H402.61V331.972H380.876V327.409Z" fill="#3E3E3E"/>
<path id="R" d="M417.143 344V301.527H431.494C434.813 301.527 437.536 302.094 439.665 303.228C441.795 304.348 443.371 305.889 444.394 307.853C445.417 309.816 445.928 312.049 445.928 314.551C445.928 317.054 445.417 319.273 444.394 321.208C443.371 323.144 441.801 324.665 439.686 325.771C437.571 326.863 434.868 327.409 431.577 327.409H419.964V322.764H431.411C433.679 322.764 435.504 322.432 436.886 321.768C438.283 321.105 439.292 320.164 439.914 318.948C440.55 317.717 440.868 316.252 440.868 314.551C440.868 312.851 440.55 311.364 439.914 310.092C439.278 308.82 438.262 307.839 436.866 307.148C435.469 306.442 433.623 306.09 431.328 306.09H422.286V344H417.143ZM437.135 324.921L447.588 344H441.615L431.328 324.921H437.135Z" fill="#3E3E3E"/>
<path id="C" d="M488.32 314.8H483.177C482.873 313.321 482.341 312.021 481.58 310.901C480.834 309.781 479.921 308.841 478.843 308.081C477.778 307.306 476.596 306.726 475.297 306.339C473.997 305.951 472.642 305.758 471.232 305.758C468.66 305.758 466.331 306.408 464.243 307.707C462.169 309.007 460.517 310.922 459.286 313.452C458.07 315.982 457.461 319.086 457.461 322.764C457.461 326.441 458.07 329.545 459.286 332.075C460.517 334.605 462.169 336.52 464.243 337.82C466.331 339.119 468.66 339.769 471.232 339.769C472.642 339.769 473.997 339.576 475.297 339.189C476.596 338.801 477.778 338.228 478.843 337.467C479.921 336.693 480.834 335.746 481.58 334.626C482.341 333.492 482.873 332.193 483.177 330.727H488.32C487.933 332.898 487.228 334.84 486.205 336.555C485.182 338.269 483.91 339.728 482.389 340.931C480.868 342.12 479.161 343.025 477.267 343.647C475.386 344.27 473.375 344.581 471.232 344.581C467.609 344.581 464.388 343.696 461.568 341.926C458.747 340.156 456.528 337.64 454.911 334.377C453.293 331.114 452.484 327.243 452.484 322.764C452.484 318.284 453.293 314.413 454.911 311.15C456.528 307.887 458.747 305.371 461.568 303.601C464.388 301.831 467.609 300.947 471.232 300.947C473.375 300.947 475.386 301.258 477.267 301.88C479.161 302.502 480.868 303.414 482.389 304.617C483.91 305.806 485.182 307.258 486.205 308.972C487.228 310.673 487.933 312.615 488.32 314.8Z" fill="#3E3E3E"/>
<path id="H" d="M496.143 344V301.527H501.286V320.441H523.933V301.527H529.076V344H523.933V325.003H501.286V344H496.143Z" fill="#3E3E3E"/>
</g>
<path id="outline" d="M253 380.5V256H1051V380.5" stroke="black" stroke-width="2"/>
</g>
<defs>
<clipPath id="clip0_33_2">
<rect width="38" height="38" fill="white" transform="translate(252 342)"/>
</clipPath>
</defs>
</svg>
